<svg xmlns="http://www.w3.org/2000/svg" width="375" height="70" viewBox="0 0 375 70"><defs><style>.a{fill:#fff;}</style></defs><title>WorldsmartshopTopLogoWhite</title><path class="a" d="M284.3,31.9a7.4,7.4,0,0,1,2.1.6,6.3,6.3,0,0,1,1.7,1.1,4.9,4.9,0,0,1,1.1,1.5,4.4,4.4,0,0,1,.4,1.9,5.9,5.9,0,0,1-.4,2.3,5.6,5.6,0,0,1-1.2,1.8,5.5,5.5,0,0,1-1.8,1.2,5.6,5.6,0,0,1-4.3,0,5.5,5.5,0,0,1-1.8-1.2,5.7,5.7,0,0,1-1.2-1.8,5.4,5.4,0,0,1-.4-2.1H280a4.1,4.1,0,0,0,1.1,2.9,3.9,3.9,0,0,0,3,1.1,4,4,0,0,0,2.9-1.1,4.2,4.2,0,0,0,1.1-3.1,3,3,0,0,0-1.1-2.5,6.3,6.3,0,0,0-2.9-1.2l-1.9-.5a5.8,5.8,0,0,1-1.5-1,4.6,4.6,0,0,1-1-1.3,3.4,3.4,0,0,1-.4-1.6,5.4,5.4,0,0,1,.4-2,4.5,4.5,0,0,1,1-1.6,5,5,0,0,1,1.5-1,4.7,4.7,0,0,1,1.9-.4,5.3,5.3,0,0,1,2.8.8,5.5,5.5,0,0,1,2,2l-1.2.8a3.7,3.7,0,0,0-1.4-1.5,4.2,4.2,0,0,0-2.2-.6,3.2,3.2,0,0,0-2.4,1,3.4,3.4,0,0,0-1,2.5A2.1,2.1,0,0,0,281,30a3.2,3.2,0,0,0,.8.9l1.1.6Z"/><path class="a" d="M302.7,29.7a4.3,4.3,0,0,0-1.1-3.1,4,4,0,0,0-3-1.1,4,4,0,0,0-2.9,1.1,4.2,4.2,0,0,0-1.1,3.1V42.6h-1.5V16.7h1.5V26a8,8,0,0,1,1.8-1.5,4.3,4.3,0,0,1,2.3-.6,5.9,5.9,0,0,1,2.2.4,5,5,0,0,1,1.8,1.2,5.5,5.5,0,0,1,1.2,1.8,6.2,6.2,0,0,1,.4,2.3V42.6h-1.5Z"/><path class="a" d="M313.4,42.7a5.6,5.6,0,0,1-2.2-.4,5.2,5.2,0,0,1-1.8-1.2,5.5,5.5,0,0,1-1.2-1.8,6.1,6.1,0,0,1-.4-2.3V29.7a6.2,6.2,0,0,1,.4-2.3,5.5,5.5,0,0,1,1.2-1.8,5,5,0,0,1,1.8-1.2,5.9,5.9,0,0,1,2.2-.4,5.6,5.6,0,0,1,2.1.4,5.3,5.3,0,0,1,1.8,1.2,5.6,5.6,0,0,1,1.2,1.8,6,6,0,0,1,.4,2.3V37a5.9,5.9,0,0,1-.4,2.3,5.6,5.6,0,0,1-1.2,1.8,5.5,5.5,0,0,1-1.8,1.2A5.4,5.4,0,0,1,313.4,42.7ZM309.3,37a4.3,4.3,0,0,0,1.1,3.1,3.9,3.9,0,0,0,3,1.1,4,4,0,0,0,2.9-1.1,4.2,4.2,0,0,0,1.1-3.1V29.7a4.2,4.2,0,0,0-1.1-3.1,4,4,0,0,0-2.9-1.1,4,4,0,0,0-3,1.1,4.3,4.3,0,0,0-1.1,3.1Z"/><path class="a" d="M325.8,40.3l1.2.6,1.4.2a4,4,0,0,0,2.9-1.1,4.2,4.2,0,0,0,1.1-3.1V29.7a4.3,4.3,0,0,0-1.1-3.1,3.9,3.9,0,0,0-3-1.1,4,4,0,0,0-2.9,1.1,4.2,4.2,0,0,0-1.1,3.1V52.2h-1.5v-28h1.5v2a8.4,8.4,0,0,1,1.8-1.5,4.2,4.2,0,0,1,2.3-.7,5.6,5.6,0,0,1,2.2.4,5.3,5.3,0,0,1,1.8,1.2,5.5,5.5,0,0,1,1.2,1.8,6.1,6.1,0,0,1,.4,2.3v7.2a6.1,6.1,0,0,1-.4,2.4,5.3,5.3,0,0,1-3,3,5.6,5.6,0,0,1-2.1.4,5.4,5.4,0,0,1-2.6-.6Z"/><path class="a" d="M75.8,24.5,80,37.1l4.6-12.6h4.6L82.6,42.7H77.6L73.3,30.5,69,42.7H64.1L57.5,24.5h4.6l4.5,12.3,4.3-12.3Z"/><path class="a" d="M110.8,33.6a10.2,10.2,0,0,1-.8,4.1,7.9,7.9,0,0,1-2.2,3,9.8,9.8,0,0,1-3.5,1.8,18,18,0,0,1-9.3,0,9.9,9.9,0,0,1-3.5-1.8,8,8,0,0,1-2.3-3,10.1,10.1,0,0,1-.8-4.1,10.1,10.1,0,0,1,.8-4.1,8,8,0,0,1,2.3-3A10,10,0,0,1,95,24.7a18,18,0,0,1,9.3,0,9.8,9.8,0,0,1,3.5,1.8,7.9,7.9,0,0,1,2.2,3A10.2,10.2,0,0,1,110.8,33.6Zm-4.5,0a7.2,7.2,0,0,0-.3-2,4.5,4.5,0,0,0-1-1.8,5.4,5.4,0,0,0-2-1.3,9.3,9.3,0,0,0-3.3-.5l-2.4.2-1.8.6a4.9,4.9,0,0,0-1.2,1,4.8,4.8,0,0,0-.8,1.2,5.2,5.2,0,0,0-.4,1.3,7.4,7.4,0,0,0-.1,1.3A7.5,7.5,0,0,0,93,35a5.2,5.2,0,0,0,.4,1.3,4.7,4.7,0,0,0,.8,1.2,4.8,4.8,0,0,0,1.2.9l1.8.6,2.4.2a9.2,9.2,0,0,0,3.3-.5,5.4,5.4,0,0,0,2-1.3,4.5,4.5,0,0,0,1-1.8A7.2,7.2,0,0,0,106.3,33.6Z"/><path class="a" d="M116.9,42.7h-4.5V24.5h11.2a10,10,0,0,1,3.1.4,5.3,5.3,0,0,1,2,1.2,4.4,4.4,0,0,1,1.1,1.8,7.5,7.5,0,0,1,.4,2.4,6.2,6.2,0,0,1-.3,2,4.8,4.8,0,0,1-.8,1.5,4.9,4.9,0,0,1-1.2,1l-1.4.7,5.4,7.2h-5.2l-5-6.7h-4.9Zm8.8-12.4a2.8,2.8,0,0,0-.1-.9,1.2,1.2,0,0,0-.4-.6l-.8-.3h-7.4v3.9h7.4l.8-.3a1.2,1.2,0,0,0,.4-.6A2.8,2.8,0,0,0,125.7,30.3Z"/><path class="a" d="M133.6,42.7V24.5h4.5V38.7h12v4Z"/><path class="a" d="M171.9,33.6a12.4,12.4,0,0,1-.3,3.1,8.3,8.3,0,0,1-1,2.4,6.7,6.7,0,0,1-1.5,1.7,7.5,7.5,0,0,1-2,1.1l-2.3.6-2.6.2H151.7V24.5h10.4l2.6.2,2.3.6a7.8,7.8,0,0,1,2,1.1,6.5,6.5,0,0,1,1.5,1.7,8.4,8.4,0,0,1,1,2.4A12.3,12.3,0,0,1,171.9,33.6Zm-4.5,0a7.5,7.5,0,0,0-.3-2.3,3.6,3.6,0,0,0-1-1.6,4.3,4.3,0,0,0-1.8-.9,9.9,9.9,0,0,0-2.7-.3h-5.5V38.7h5.5a9.9,9.9,0,0,0,2.7-.3,4.2,4.2,0,0,0,1.8-1,3.7,3.7,0,0,0,1-1.6A7.5,7.5,0,0,0,167.5,33.6Z"/><path class="a" d="M187.3,27.2l-1.1-.5-1.4-.5-1.8-.4-2.2-.2-2.6.2a6.8,6.8,0,0,0-1.9.6,3.1,3.1,0,0,0-1.2,1,2.4,2.4,0,0,0-.4,1.4,1.9,1.9,0,0,0,.4,1.2,3.6,3.6,0,0,0,1.1.9l1.6.7,1.9.6,2.1.6,2.1.6,1.9.8,1.6,1a4.4,4.4,0,0,1,1.1,1.3,3.4,3.4,0,0,1,.4,1.7,4.2,4.2,0,0,1-.3,1.8,4.1,4.1,0,0,1-.9,1.3,5.2,5.2,0,0,1-1.4.9l-1.7.6-1.9.3h-1.9a20.3,20.3,0,0,1-3.9-.3l-3.3-.9v-2a10.2,10.2,0,0,0,3.5,1.5,17.9,17.9,0,0,0,3.8.4l2.6-.2a7.9,7.9,0,0,0,2.1-.6,3.5,3.5,0,0,0,1.4-1,2.6,2.6,0,0,0,.5-1.6,2.3,2.3,0,0,0-.4-1.3,3.7,3.7,0,0,0-1.1-1l-1.6-.8-1.9-.6-2.1-.6-2.1-.6-1.9-.7-1.6-.9a4.2,4.2,0,0,1-1.1-1.2,3.3,3.3,0,0,1-.4-1.6,4,4,0,0,1,.3-1.6,3.7,3.7,0,0,1,.9-1.2l1.3-.9,1.6-.6,1.7-.3h3.6l1.7.2,1.6.4,1.5.4Z"/><path class="a" d="M212.1,42.7V27.2L203,42.7h-1.3l-9.1-15.5V42.7h-1.5V24.5h1.6L202.4,41,212,24.5h1.6V42.7Z"/><path class="a" d="M233,42.7l-2.3-4.8H219.5l-2.3,4.8h-1.6l8.6-18.1H226l8.6,18.1Zm-7.9-16.5-4.9,10.2H230Z"/><path class="a" d="M238.2,34.9v7.8h-1.5V24.5h8.2a14,14,0,0,1,3.2.3,5.9,5.9,0,0,1,2.2,1,3.8,3.8,0,0,1,1.3,1.6,6.1,6.1,0,0,1,.4,2.3,5.1,5.1,0,0,1-1,3.3,5.2,5.2,0,0,1-3.1,1.7l5.6,8h-1.9l-5.3-7.8h-8.1Zm12.3-5.2a4.1,4.1,0,0,0-.4-1.9,2.5,2.5,0,0,0-1.2-1.1,6.9,6.9,0,0,0-2.2-.5h-8.5v7.3h8.4a6.9,6.9,0,0,0,2.2-.5,2.5,2.5,0,0,0,1.2-1.1A4,4,0,0,0,250.4,29.8Z"/><path class="a" d="M262.6,26V42.7h-1.5V26h-7.5V24.5h16.5V26Z"/><path class="a" d="M33.9,10A22.4,22.4,0,1,1,7,40.5,24.2,24.2,0,1,0,33.9,10Z"/><rect class="a" x="4.2" y="21.7" width="5" height="4.96" rx="0.3" ry="0.3"/><path class="a" d="M28,13.8A18.2,18.2,0,1,0,46.3,32,18.2,18.2,0,0,0,28,13.8Zm-3.7,9.7a.2.2,0,0,1,.2-.2h2.9a.2.2,0,0,1,.2.2v2.9a.2.2,0,0,1-.2.2H24.5a.2.2,0,0,1-.2-.2Zm-7.6,8.9a.3.3,0,0,1-.3.3H12.1a.3.3,0,0,1-.3-.3V28.1a.3.3,0,0,1,.3-.3h4.3a.3.3,0,0,1,.3.3Zm0-6a.2.2,0,0,1-.2.2H13.6a.2.2,0,0,1-.2-.2V23.5a.2.2,0,0,1,.2-.2h2.9a.2.2,0,0,1,.2.2Zm6.3,6a.3.3,0,0,1-.3.3H18.4a.3.3,0,0,1-.3-.3V28.1a.3.3,0,0,1,.3-.3h4.3a.3.3,0,0,1,.3.3Zm0-6.1a.3.3,0,0,1-.3.3H18.4a.3.3,0,0,1-.3-.3V22a.3.3,0,0,1,.3-.3h4.3a.3.3,0,0,1,.3.3Zm6.3,10.9a.2.2,0,0,1-.2.2H26.2a.2.2,0,0,1-.2-.2V34.4a.2.2,0,0,1,.2-.2h2.8a.2.2,0,0,1,.2.2Zm0-4.8a.3.3,0,0,1-.3.3H24.7a.3.3,0,0,1-.3-.3V28.1a.3.3,0,0,1,.3-.3h4.3a.3.3,0,0,1,.3.3Zm6.3,6.4a.3.3,0,0,1-.3.3H30.9a.3.3,0,0,1-.3-.3V34.5a.3.3,0,0,1,.3-.3h4.3a.3.3,0,0,1,.3.3Zm0-6.4a.3.3,0,0,1-.3.3H30.9a.3.3,0,0,1-.3-.3V28.1a.3.3,0,0,1,.3-.3h4.3a.3.3,0,0,1,.3.3Zm5.9,6.7H37.2a.3.3,0,0,1-.3-.3V34.5a.3.3,0,0,1,.3-.3h4.3a.3.3,0,0,1,.3.3v4.3A.3.3,0,0,1,41.5,39.1Z"/><rect class="a" x="4.2" y="15.5" width="5" height="4.96" rx="0.3" ry="0.3"/><rect class="a" y="11.5" width="2.8" height="2.81" rx="0.2" ry="0.2"/><rect class="a" x="10.5" y="15.5" width="2.8" height="2.81" rx="0.2" ry="0.2"/><rect class="a" y="15.5" width="2.8" height="2.81" rx="0.2" ry="0.2"/></svg>